<svg version="1.1" xmlns="http://www.w3.org/2000/svg" xmlns:xlink="http://www.w3.org/1999/xlink" width="164.83812" height="159.67601" viewBox="0,0,164.83812,159.67601"><g transform="translate(-153.67229,-105.16636)"><g stroke-miterlimit="10"><path d="M212.45298,121.45117c4.27378,-1.68745 3.99111,1.73524 23.39137,52.09733c11.02954,29.4711 19.76067,53.61865 16.55011,54.62697c-4.68511,1.80854 -12.36182,-22.62622 -23.39136,-52.09733c-16.89172,-48.16374 -21.64214,-52.78237 -16.55012,-54.62697z" fill="#d99e82" stroke="#000000" stroke-width="0"/><path d="M231.66366,188.60508c-9.14277,0 -16.55443,-7.24756 -16.55443,-16.18792c0,-0.78587 -6.31352,-9.26285 -5.83245,-12.90786c0.40452,-2.76293 9.55433,-0.3003 11.53093,-0.54877c4.86102,-1.00187 5.4542,-2.73129 10.85596,-2.73129c1.57876,0 3.53694,-7.03389 6.07355,-5.48884c4.69159,2.85764 10.48089,15.87384 10.48089,21.67674c0,8.94036 -7.41168,16.18792 -16.55443,16.18792z" fill="#fcb1e3" stroke="#000000" stroke-width="0"/><path d="M254.49773,207.54343c-3.95019,2.74614 -8.14073,4.33933 -12.55592,4.76162c-4.55084,0.43525 -8.46053,0.76116 -12.24363,-2.3874c-7.45344,-6.20327 -8.34307,-19.21037 -2.19171,-24.55014c1.44594,-1.25547 3.26814,-2.45373 4.53075,-3.07615c1.76698,-0.87105 1.91986,-1.00055 5.71606,-1.94996c6.04389,-0.9383 9.92917,-0.90806 14.55274,2.94c7.45344,6.20327 8.43469,16.90662 2.19171,24.26203z" fill="#ffd983" stroke="#000000" stroke-width="0"/><path d="M232.32721,232.90573c-2.56114,-5.68425 -1.68892,-8.14742 -0.86406,-12.66379c1.34684,-6.26958 3.91259,-8.71043 9.84623,-10.86565c2.22542,-0.80831 7.74255,-2.38249 10.8511,-2.73285c3.62404,-0.35301 6.7831,0.58103 9.40006,2.45432c2.34915,1.68157 3.03827,2.18205 6.332,6.90816c2.62231,4.47889 4.4898,11.43587 0.7492,16.90554c-3.6011,5.26566 -11.02377,5.95331 -18.58348,5.95331c-8.33056,0 -15.04386,-0.62903 -17.73105,-5.95905z" fill="#a6d388" stroke="#000000" stroke-width="0"/><path d="M231.87007,170.77208c-1.41148,0 -2.55572,-1.14423 -2.55572,-2.55573c0,-1.41149 1.14423,-2.55572 2.55572,-2.55572c1.4115,0 2.55572,1.14422 2.55572,2.55572c0,1.4115 -1.14422,2.55573 -2.55572,2.55573z" fill="#000000" stroke="#000000" stroke-width="1.5"/><path d="M243.83381,164.03088z" fill="#000000" stroke="#000000" stroke-width="0"/><path d="M245.61169,164.9569c0,1.37058 -0.22211,1.74084 -1.59269,1.74084c-0.68528,0 -0.93531,-0.35186 -1.3844,-0.80094c-0.44908,-0.44908 -0.80093,-0.99542 -0.80093,-1.68071c0,-1.37058 -0.07421,-1.74085 1.29638,-1.74085c1.37058,0 2.48163,1.11107 2.48163,2.48165z" fill="#000000" stroke="#000000" stroke-width="1.5"/><path d="M171.76282,204.06866c-0.28826,0.38064 -0.74568,0.70884 -1.46327,0.87444c-2.43598,0.56215 -2.99813,-1.87383 -2.99813,-1.87383c-1.08291,-4.71714 -2.97399,-9.10327 -4.29967,-13.73843c-1.02774,-3.59341 -1.74805,-7.31683 -2.86512,-10.89598c-2.01672,-6.4617 -4.99894,-12.50044 -6.0437,-19.27641c-0.48453,-3.14249 -0.41139,-7.14158 -0.4175,-10.31595c-0.0069,-3.57863 -0.09055,-8.76891 1.31754,-12.14857c1.44572,-3.46998 3.74941,-5.57042 6.19285,-8.22371c1.45483,-0.93415 2.7569,-2.1662 4.3645,-2.80245c1.96576,-0.778 4.33408,-0.3033 6.21366,-1.27112c4.28457,-2.20617 8.52185,-5.96657 12.26766,-8.95314c0.81729,-0.65164 3.23507,-2.69115 3.70627,-3.57852c0.55818,-1.05117 0.26807,-2.4988 1.01928,-3.42196c1.07803,-1.32478 2.55793,-2.42624 4.17851,-2.96558c1.60707,-0.53484 3.38627,-0.09622 5.07989,-0.11566c3.27005,-0.03752 6.54053,0 9.81079,0c10.09935,0 20.19869,0 30.29804,0c7.58949,0 16.57655,-1.10065 23.75301,1.92188c3.90461,1.64452 6.35308,4.75293 9.55303,7.28533c9.96993,7.89007 24.53721,14.81847 29.13986,27.5724c2.53309,7.01917 1.51585,16.00722 1.51585,23.33159c0,5.76103 -0.61538,11.75172 1.32762,17.28692c2.67436,7.61868 9.03442,13.35761 12.05341,20.83326c1.26881,3.14183 1.35214,6.75574 1.88077,10.06046c1.32446,8.27987 1.50994,17.42027 0.59331,25.77575c-1.12337,9.05857 -7.36783,13.0563 -14.97325,16.69793c-6.54015,3.13156 -12.07923,5.49903 -19.26272,6.93224c-4.61481,0.92072 -9.09901,1.77023 -13.82632,1.67794c-1.28665,-0.02512 -2.68945,0.35311 -3.856,-0.19026c-2.46939,-1.15024 -4.02635,-3.80305 -6.48851,-4.96866c-7.2866,-3.44955 -14.77831,-6.50528 -22.55104,-8.68908c-7.40195,-2.08724 -14.91899,-2.86602 -22.42992,-4.37861c-2.78368,-0.56059 -5.47048,-1.58948 -8.27963,-2.00397c-4.94878,-0.7302 -9.96562,-0.94615 -14.90313,-1.88007c-1.51493,-0.28654 -3.17478,-0.28218 -4.49978,-1.07052c-2.6219,-1.55997 -3.62175,-5.82231 -5.32123,-8.16917c-1.5998,-2.2092 -4.2038,-3.5652 -5.78354,-5.78879c-1.60843,-2.26398 -1.30386,-4.39047 -1.31497,-6.91242c-0.01666,-3.77965 0.01671,-7.25199 -0.51674,-10.99605c-0.5757,-1.87266 -1.22241,-3.73847 -2.10485,-5.48763zM171.71331,200.12954c0.17751,-0.15703 0.39416,-0.30405 0.65724,-0.43559c2.23607,-1.11803 3.3541,1.11803 3.3541,1.11803l0.57711,1.15421c1.05066,2.11747 1.81638,4.37245 2.51199,6.63159c0.5907,4.12582 0.65806,7.92724 0.63747,12.08817c-0.00328,0.66386 -0.28388,3.23993 0.41635,4.05258c1.77119,2.05556 4.15892,3.56162 5.75857,5.75332c0.75688,1.03701 2.57286,6.14004 3.91246,6.83557c0.80162,0.41621 1.78979,0.24485 2.68395,0.37253c4.93034,0.70397 9.93665,1.13596 14.84789,1.87083c2.86742,0.42905 5.61422,1.46302 8.45643,2.03577c7.64046,1.53968 15.27855,2.35348 22.81126,4.46997c8.02919,2.26389 15.89906,5.34908 23.39047,9.00919c1.35187,0.66049 2.70554,1.36095 3.89191,2.28633c0.90651,0.70708 1.31243,1.99476 2.3159,2.5558c0.55992,0.31305 1.27414,-0.16301 1.91505,-0.19026c2.69329,-0.11452 5.40257,-0.18667 8.06349,-0.61844c4.67622,-0.75877 9.70682,-1.60797 14.1844,-3.19326c3.05751,-1.08251 5.79484,-2.91663 8.7218,-4.31419c5.80375,-2.77116 11.48457,-5.57643 12.15071,-12.73446c0.89028,-7.90125 0.69253,-16.60034 -0.5609,-24.43244c-0.45089,-2.81738 -0.4648,-6.29682 -1.58187,-8.98402c-3.12644,-7.52091 -9.4312,-13.30175 -12.13475,-21.04955c-2.13875,-6.12921 -1.60817,-12.56471 -1.60817,-18.93822c0,-6.66868 1.07563,-15.22928 -1.22071,-21.63918c-1.02873,-2.87154 -3.04748,-5.25092 -5.02405,-7.48693c-6.37793,-7.21509 -15.05669,-11.95175 -22.54141,-17.87914c-2.69002,-2.13031 -5.07288,-5.20411 -8.33725,-6.5652c-6.49946,-2.70998 -14.97349,-1.54075 -21.83833,-1.54075c-10.09935,0 -20.19869,0 -30.29804,0c-4.12617,0 -9.34582,-0.86508 -13.38749,-0.11566c-2.49184,0.46205 -1.33603,2.29171 -2.30458,4.00037c-0.96714,1.70616 -3.35141,3.795 -4.95031,5.07806c-3.93747,3.15967 -8.55632,7.28073 -13.12499,9.51424c-4.10422,2.00645 -6.15075,0.97034 -9.62054,3.42881c-1.62417,1.78 -3.83911,3.93489 -4.77216,6.20393c-1.74675,4.24785 -1.13415,10.79828 -0.96822,15.22104c0.31428,8.37699 3.75963,15.41623 6.21246,23.2557c1.13363,3.62321 1.86737,7.39513 2.90594,11.03403c1.17304,4.11006 2.7705,8.03033 3.89684,12.14721z" fill="#9966ff" stroke="none" stroke-width="0.5"/></g></g></svg>