<svg version="1.1" xmlns="http://www.w3.org/2000/svg" xmlns:xlink="http://www.w3.org/1999/xlink" width="122.84063" height="142.07882" viewBox="0,0,122.84063,142.07882"><g transform="translate(-185.41163,-107.37079)"><g stroke-miterlimit="10"><path d="M212.45298,121.45117c4.27378,-1.68745 3.99111,1.73524 23.39137,52.09733c11.02954,29.4711 19.76067,53.61865 16.55011,54.62697c-4.68511,1.80854 -12.36182,-22.62622 -23.39136,-52.09733c-16.89172,-48.16374 -21.64214,-52.78237 -16.55012,-54.62697z" fill="#d99e82" stroke="#000000" stroke-width="0"/><path d="M231.66366,188.60508c-9.14277,0 -16.55443,-7.24756 -16.55443,-16.18792c0,-0.78587 -6.31352,-9.26285 -5.83245,-12.90786c0.40452,-2.76293 9.55433,-0.3003 11.53093,-0.54877c4.86102,-1.00187 5.4542,-2.73129 10.85596,-2.73129c1.57876,0 3.53694,-7.03389 6.07355,-5.48884c4.69159,2.85764 10.48089,15.87384 10.48089,21.67674c0,8.94036 -7.41168,16.18792 -16.55443,16.18792z" fill="#fcb1e3" stroke="#000000" stroke-width="0"/><path d="M254.49773,207.54343c-3.95019,2.74614 -8.14073,4.33933 -12.55592,4.76162c-4.55084,0.43525 -8.46053,0.76116 -12.24363,-2.3874c-7.45344,-6.20327 -8.34307,-19.21037 -2.19171,-24.55014c1.44594,-1.25547 3.26814,-2.45373 4.53075,-3.07615c1.76698,-0.87105 1.91986,-1.00055 5.71606,-1.94996c6.04389,-0.9383 9.92917,-0.90806 14.55274,2.94c7.45344,6.20327 8.43469,16.90662 2.19171,24.26203z" fill="#ffd983" stroke="#000000" stroke-width="0"/><path d="M232.32721,232.90573c-2.56114,-5.68425 -1.68892,-8.14742 -0.86406,-12.66379c1.34684,-6.26958 3.91259,-8.71043 9.84623,-10.86565c2.22542,-0.80831 7.74255,-2.38249 10.8511,-2.73285c3.62404,-0.35301 6.7831,0.58103 9.40006,2.45432c2.34915,1.68157 3.03827,2.18205 6.332,6.90816c2.62231,4.47889 4.4898,11.43587 0.7492,16.90554c-3.6011,5.26566 -11.02377,5.95331 -18.58348,5.95331c-8.33056,0 -15.04386,-0.62903 -17.73105,-5.95905z" fill="#a6d388" stroke="#000000" stroke-width="0"/><path d="M231.87007,170.77208c-1.41148,0 -2.55572,-1.14423 -2.55572,-2.55573c0,-1.41149 1.14423,-2.55572 2.55572,-2.55572c1.4115,0 2.55572,1.14422 2.55572,2.55572c0,1.4115 -1.14422,2.55573 -2.55572,2.55573z" fill="#000000" stroke="#000000" stroke-width="1.5"/><path d="M243.83381,164.03088z" fill="#000000" stroke="#000000" stroke-width="0"/><path d="M245.61169,164.9569c0,1.37058 -0.22211,1.74084 -1.59269,1.74084c-0.68528,0 -0.93531,-0.35186 -1.3844,-0.80094c-0.44908,-0.44908 -0.80093,-0.99542 -0.80093,-1.68071c0,-1.37058 -0.07421,-1.74085 1.29638,-1.74085c1.37058,0 2.48163,1.11107 2.48163,2.48165z" fill="#000000" stroke="#000000" stroke-width="1.5"/><path d="M186.98775,186.62395c0.41633,-0.16653 0.78785,-0.22852 1.11725,-0.21811c-0.89467,-3.34332 -1.40224,-6.81679 -1.52229,-10.45957c-0.0779,-2.3639 -0.45545,-4.78125 0.03284,-7.09548c0.95405,-4.52172 4.2434,-7.76269 6.30005,-11.6525c1.43394,-2.71206 2.65388,-5.84429 3.18718,-8.87504c-0.01323,-3.77885 -1.05662,-7.07293 -1.43794,-10.75625c-0.46063,-4.4494 0.85398,-8.8258 0.85073,-13.25767c-0.00262,-3.58299 0.16441,-9.91331 2.42853,-12.91189c3.35815,-4.4475 6.69645,-4.0142 11.61358,-4.01575c8.8332,-0.00277 16.63519,0.81005 25.14652,3.44118c5.42298,1.7013 10.91004,1.43743 16.43045,2.80765c4.76687,1.18319 9.54781,2.81493 14.18906,4.41382c15.69088,5.40545 32.98148,12.41948 38.65613,29.71923c1.63497,4.98437 2.42075,9.56881 2.43077,14.78502c1.9474,17.51663 0.58362,35.43708 0.58093,53.03801c-0.00056,3.67411 -0.11624,5.34053 0.27313,8.86184c0.55085,4.98169 2.04492,10.41633 -0.25308,15.25489c-2.34208,4.93137 -10.27684,6.84678 -15.05089,7.67947c-11.00478,2.19484 -22.17969,1.77289 -33.34906,1.77289c-4.26938,0 -9.44373,0.68234 -13.67388,-0.03228c-3.64526,-0.61581 -7.3046,-2.03121 -10.89017,-2.92986c-11.64136,-2.91766 -23.16081,-3.67332 -34.44005,-8.22032c-2.74829,-1.63231 -7.4651,-4.37033 -9.22838,-7.07301c-0.69115,-1.05936 -0.43749,-2.49862 -0.81225,-3.70671c-0.79506,-2.56297 -1.24972,-5.26692 -1.26516,-7.95032c-0.05146,-8.94312 1.72862,-19.53165 -2.08434,-27.82077l-0.62238,-1.54879c0,0 -0.92848,-2.32119 1.39272,-3.24967zM193.09885,198.11826c0.66249,5.49937 0.2029,11.18316 0.2029,16.79663c0,2.80878 -0.5011,5.65312 -0.05446,8.42616c0.1389,0.86237 0.85696,1.5398 1.09772,2.37945c0.24471,0.85344 -0.13998,1.89581 0.34196,2.64145c1.15861,1.79258 5.31893,4.05267 7.13532,5.12855c9.18318,3.68264 18.65138,5.27748 28.35682,6.95002c5.3111,0.91526 10.32077,2.80583 15.55957,3.74747c3.91866,0.70435 8.9181,-0.03228 12.87297,-0.03228c10.85693,0 21.74643,0.45533 32.44098,-1.68974c2.58224,-0.4227 5.09461,-1.31198 7.47313,-2.40252c0.93182,-0.42724 3.44925,-1.19616 4.02283,-2.61433c1.5848,-3.91837 0.17872,-8.481 -0.25308,-12.44618c-0.41949,-3.85213 -0.30337,-5.42481 -0.30397,-9.41633c-0.00263,-17.50965 1.36186,-35.33532 -0.57328,-52.76151c0.01116,-5.52769 -0.73382,-11.8891 -3.46393,-16.85776c-6.46241,-11.76127 -17.47371,-17.22295 -29.57269,-21.52766c-6.06421,-2.15759 -12.2057,-4.39067 -18.45694,-5.95776c-5.6025,-1.40447 -11.14773,-1.18481 -16.69894,-2.88262c-8.04218,-2.49254 -15.32709,-3.2149 -23.66809,-3.21761c-2.69429,-0.00087 -5.69044,-0.88959 -7.4309,1.75531c-1.5995,2.43069 -1.60918,7.36613 -1.61121,10.17233c-0.00304,4.21312 -1.33205,8.51109 -0.88059,12.71208c0.43077,4.00843 1.45879,7.62697 1.44759,11.75086c-0.68825,3.70225 -1.97112,7.41255 -3.73808,10.74655c-1.79582,3.38845 -4.99424,6.34635 -5.81917,10.27751c-0.41104,1.9588 -0.0078,4.00367 0.05525,6.00414c0.24528,7.78265 2.46627,14.67059 6.70194,21.1912c1.68768,2.59811 2.58997,5.79731 4.82246,7.94544c0.71631,0.68924 1.86493,0.68893 2.7974,1.03339c0,0 2.30769,0.96154 1.34615,3.26923c-0.96154,2.30769 -3.26923,1.34615 -3.26923,1.34615c-1.37596,-0.61738 -3.02125,-0.82754 -4.12787,-1.85214c-0.06666,-0.06172 -5.45634,-8.54442 -5.76419,-9.02183c-0.34103,-0.52888 -0.6705,-1.06002 -0.98839,-1.59363z" fill="#9966ff" stroke="none" stroke-width="0.5"/></g></g></svg>