<svg version="1.1" xmlns="http://www.w3.org/2000/svg" xmlns:xlink="http://www.w3.org/1999/xlink" width="139.19779" height="163.15261" viewBox="0,0,139.19779,163.15261"><g transform="translate(-169.33345,-98.12545)"><g stroke-miterlimit="10"><path d="M212.45298,121.45117c4.27378,-1.68745 3.99111,1.73524 23.39137,52.09733c11.02954,29.4711 19.76067,53.61865 16.55011,54.62697c-4.68511,1.80854 -12.36182,-22.62622 -23.39136,-52.09733c-16.89172,-48.16374 -21.64214,-52.78237 -16.55012,-54.62697z" fill="#d99e82" stroke="#000000" stroke-width="0"/><path d="M231.66366,188.60508c-9.14277,0 -16.55443,-7.24756 -16.55443,-16.18792c0,-0.78587 -6.31352,-9.26285 -5.83245,-12.90786c0.40452,-2.76293 9.55433,-0.3003 11.53093,-0.54877c4.86102,-1.00187 5.4542,-2.73129 10.85596,-2.73129c1.57876,0 3.53694,-7.03389 6.07355,-5.48884c4.69159,2.85764 10.48089,15.87384 10.48089,21.67674c0,8.94036 -7.41168,16.18792 -16.55443,16.18792z" fill="#fcb1e3" stroke="#000000" stroke-width="0"/><path d="M254.49773,207.54343c-3.95019,2.74614 -8.14073,4.33933 -12.55592,4.76162c-4.55084,0.43525 -8.46053,0.76116 -12.24363,-2.3874c-7.45344,-6.20327 -8.34307,-19.21037 -2.19171,-24.55014c1.44594,-1.25547 3.26814,-2.45373 4.53075,-3.07615c1.76698,-0.87105 1.91986,-1.00055 5.71606,-1.94996c6.04389,-0.9383 9.92917,-0.90806 14.55274,2.94c7.45344,6.20327 8.43469,16.90662 2.19171,24.26203z" fill="#ffd983" stroke="#000000" stroke-width="0"/><path d="M232.32721,232.90573c-2.56114,-5.68425 -1.68892,-8.14742 -0.86406,-12.66379c1.34684,-6.26958 3.91259,-8.71043 9.84623,-10.86565c2.22542,-0.80831 7.74255,-2.38249 10.8511,-2.73285c3.62404,-0.35301 6.7831,0.58103 9.40006,2.45432c2.34915,1.68157 3.03827,2.18205 6.332,6.90816c2.62231,4.47889 4.4898,11.43587 0.7492,16.90554c-3.6011,5.26566 -11.02377,5.95331 -18.58348,5.95331c-8.33056,0 -15.04386,-0.62903 -17.73105,-5.95905z" fill="#a6d388" stroke="#000000" stroke-width="0"/><path d="M231.87007,170.77208c-1.41148,0 -2.55572,-1.14423 -2.55572,-2.55573c0,-1.41149 1.14423,-2.55572 2.55572,-2.55572c1.4115,0 2.55572,1.14422 2.55572,2.55572c0,1.4115 -1.14422,2.55573 -2.55572,2.55573z" fill="#000000" stroke="#000000" stroke-width="1.5"/><path d="M243.83381,164.03088z" fill="#000000" stroke="#000000" stroke-width="0"/><path d="M245.61169,164.9569c0,1.37058 -0.22211,1.74084 -1.59269,1.74084c-0.68528,0 -0.93531,-0.35186 -1.3844,-0.80094c-0.44908,-0.44908 -0.80093,-0.99542 -0.80093,-1.68071c0,-1.37058 -0.07421,-1.74085 1.29638,-1.74085c1.37058,0 2.48163,1.11107 2.48163,2.48165z" fill="#000000" stroke="#000000" stroke-width="1.5"/><path d="M176.18037,148.34378c-1.62981,6.34053 -2.61908,13.15731 -1.11901,19.5627c1.02497,4.3767 3.4986,7.99566 4.85714,12.22634c0.77985,2.42856 1.46789,4.89936 2.49719,7.23316c0,0 1.00205,2.29039 -1.28835,3.29244c-2.29039,1.00205 -3.29244,-1.28835 -3.29244,-1.28835c-1.09236,-2.51509 -1.86957,-5.15727 -2.69676,-7.77159c-1.38111,-4.36499 -3.89842,-8.05274 -4.95365,-12.5892c-1.93375,-8.31326 -0.28197,-17.19067 2.05731,-25.19788c1.28017,-4.38195 2.87886,-8.83668 6.05911,-12.26624c2.33318,-2.51609 5.47614,-4.20089 8.43933,-5.82187c0.55309,0.01721 1.37209,0.52463 1.65926,0.05163c0.49079,-0.80839 -0.25275,-1.93506 0.03177,-2.83696c0.91225,-2.8918 2.43346,-5.56703 3.93203,-8.20312c2.92008,-5.13662 7.53494,-8.34103 12.345,-11.55015c1.05121,-0.70133 5.4346,-3.66125 6.22572,-3.9908c4.76288,-1.98406 11.71029,-0.78506 16.47066,0.23449c10.42125,2.23198 20.51373,5.81747 30.88514,8.34022c4.92451,1.19927 9.64594,2.79727 14.50563,4.21443c7.73667,2.25614 15.38498,4.13066 21.47837,9.81726c4.64467,4.33459 8.87764,11.18781 10.14666,17.46584c1.22455,6.05799 0.83975,12.66041 0.83975,18.80386c0,7.36991 -0.01283,14.22552 -2.06744,21.33639c-1.93187,7.39726 -4.20948,15.4392 -2.60469,23.15496c0.63555,3.05572 2.41295,4.16998 3.92895,6.58772c2.92394,4.66317 3.97224,9.60379 3.91727,14.99951c-0.013,1.27577 0.27611,2.60335 -0.08664,3.82653c-1.14342,3.85556 -4.46502,7.87071 -6.6869,11.13042c-2.71851,3.98832 -5.00611,8.07876 -6.46619,12.68959c-1.54823,2.23537 -3.4491,5.44808 -5.90184,6.83718c-1.82729,1.03488 -6.73692,1.74212 -8.99201,2.0428c-5.11918,0.68257 -10.08928,0.59981 -15.24157,0.59981c-8.30496,0 -16.60993,0.0022 -24.91489,0c-5.34054,-0.00141 -10.65379,0.11287 -15.731,-1.89047c-7.93126,-3.12947 -14.2803,-9.7085 -19.6907,-16.01966c-5.89377,-6.43567 -10.45779,-13.96282 -14.90595,-21.38529c-2.6568,-4.43329 -6.63421,-8.35077 -5.52234,-14.10178c0.30256,-1.56498 0.64676,-3.22296 1.58495,-4.51156c1.83999,-2.52723 5.23051,-3.75216 6.80588,-6.45227c3.89436,-6.67476 2.52411,-15.9795 2.552,-23.32608c-1.69872,-9.27185 -7.06079,-18.03487 -15.25587,-22.90358l-3.76317,-2.31575c0,0 -0.01351,-0.00831 -0.03771,-0.02469zM177.48863,143.71336c0.7547,0.03052 1.34994,0.39682 1.34994,0.39682l3.7392,2.3011c9.60459,5.81191 15.66723,15.81685 17.63915,26.7275c0.02753,8.47584 1.29031,18.64011 -3.21906,26.30499c-2.1425,3.64175 -7.10331,5.10124 -7.76813,9.23486c-0.69925,4.34773 2.8693,7.39045 4.86556,10.71376c4.29665,7.15295 8.65791,14.46531 14.36669,20.65322c4.8943,5.71091 10.60342,11.84077 17.78971,14.68907c4.44108,1.76023 9.22527,1.54149 13.89259,1.54023c8.30496,-0.00226 16.60993,0 24.91489,0c4.92576,0 9.67702,0.09789 14.56922,-0.5544c1.13362,-0.15115 6.1443,-0.85677 7.16695,-1.41983c1.21073,-0.66662 3.12239,-3.59795 3.90896,-4.70494c1.45301,-4.81759 3.98064,-9.13571 6.80724,-13.28016c1.91967,-2.81469 4.96262,-6.32779 6.00942,-9.64538c0.25307,-0.80206 -0.07546,-1.68067 -0.08664,-2.52163c-0.05768,-4.3408 -0.57675,-8.33893 -3.00799,-12.12445c-1.85775,-2.89257 -3.94931,-4.75249 -4.72764,-8.41702c-1.80819,-8.51333 0.53751,-17.3523 2.67479,-25.5327c1.95871,-6.64755 1.88677,-13.10257 1.88677,-20.00442c0,-12.02259 0.09055,-23.75497 -9.39823,-32.61463c-5.47753,-5.11435 -12.52374,-6.64769 -19.46633,-8.67226c-4.78819,-1.39631 -9.43543,-2.97734 -14.28761,-4.15616c-10.33244,-2.51332 -20.38491,-6.05287 -30.75844,-8.31114c-3.6039,-0.78455 -9.88693,-2.11681 -13.55142,-0.48242c-0.19759,0.08813 -5.0503,3.33431 -5.31639,3.51157c-4.05477,2.70106 -8.34263,5.43431 -10.73922,9.80276c-1.31423,2.39555 -2.61735,4.81793 -3.57034,7.37873c-0.55787,1.49907 -0.12843,3.41227 -1.12244,4.66541c-0.77364,0.97533 -2.35646,0.80389 -3.53469,1.20584c-2.2731,1.29005 -4.76095,2.62636 -6.56542,4.56603c-2.26979,2.43987 -3.49434,5.61215 -4.46105,8.74963z" fill="#9966ff" stroke="none" stroke-width="0.5"/></g></g></svg>