<svg version="1.1" xmlns="http://www.w3.org/2000/svg" xmlns:xlink="http://www.w3.org/1999/xlink" width="82.69333" height="80.79489" viewBox="0,0,82.69333,80.79489"><g transform="translate(-188.52267,-131.58011)"><g stroke="none" stroke-miterlimit="10"><g stroke-width="1"><path d="M268.083,183.402c0,14.527 -12.525,26.307 -27.978,26.307c-15.453,0 -27.977,-11.775 -27.977,-26.307c0,-14.527 12.523,-21.275 27.977,-21.275c15.452,-0.001 27.978,6.749 27.978,21.275z" fill="#ec1c2c"/><g fill="#231f20"><path d="M271.216,183.121c0,16.156 -13.927,29.254 -31.109,29.254c-17.179,0 -31.107,-13.098 -31.107,-29.254c0,-14.238 10.821,-20.648 25.149,-21.972c0,0 4.528,-0.58 9.136,-0.189c15.684,0.73 27.931,7.017 27.931,22.161zM266.47,183.55c0,-12.602 -10.007,-18.984 -22.949,-19.92c0,0 -8.207,0.115 -8.456,0.144c-12.145,1.341 -21.314,7.71 -21.314,19.774c0,13.686 11.798,24.785 26.357,24.785c14.558,0 26.356,-11.097 26.362,-24.783z"/><path d="M249.06,170.065c-3.568,0.181 -6.986,0.271 -10.561,0.672c-2.387,0.268 -4.687,0.289 -6.455,-1.514c-0.384,-0.395 0.118,-1.076 0.598,-0.773c1.182,0.741 2.373,1.041 3.571,1.099c0.078,0.064 4.274,-0.49 6.19,-1.098c2.312,-0.63 4.626,-1.15 6.929,-0.389c1.101,0.364 0.888,1.942 -0.272,2.003z"/></g><path d="M221.555,183.261c0,3.431 1.85,6.212 -0.084,6.212c-1.934,0 -3.5,-2.781 -3.5,-6.212c0,-3.43 1.566,-6.211 3.5,-6.211c1.934,0 0.084,2.782 0.084,6.211z" fill="#ffffff"/></g><g stroke-width="1"><path d="M233.116,153.686c1.021,-0.61 2.039,-1.222 3.059,-1.833c0.734,1.128 1.472,2.229 2.064,3.482c2.162,4.564 1.686,9.385 1.624,14.212c-0.375,0.089 -0.977,0.153 -1.348,0.219c0.258,-6.148 -1.205,-11.784 -5.399,-16.08z" fill="#99661d"/><path d="M242.297,167.438c0,0 -0.23,1.876 -0.251,2.23c0,0 -3.771,1.124 -5.25,0.562l-0.046,-1.609c0.03,-3.215 -0.97,-6.668 -1.562,-7.749c-0.283,-0.516 -1.423,-3.466 -4.9,-6.557c-0.596,-0.527 -0.395,-1.515 0.242,-1.898c1.807,-1.084 3.609,-2.168 5.414,-3.252c0.58,-0.347 1.265,-0.088 1.658,0.435c5.528,7.358 4.864,17.077 4.695,17.838zM239.761,168.152c0.112,-4.442 0.49,-8.57 -1.522,-12.817c-0.592,-1.253 -1.33,-2.354 -2.064,-3.482c-1.02,0.611 -2.038,1.223 -3.059,1.833c3.962,4.058 5.58,8.969 5.53,14.683v1.152l1.109,-0.141z" fill="#231f20"/></g><path d="M200.97619,171.11815c-2.37171,-0.79057 -1.58114,-3.16228 -1.58114,-3.16228l0.17267,-0.32385c0.55457,-5.52069 1.9603,-11.03394 2.30175,-16.56192c0.02688,-0.43519 0.04674,-0.87305 0.06094,-1.31294c-0.55978,-0.08889 -1.12084,-0.17907 -1.68347,-0.27008c-2.01363,-0.32571 -9.04532,-1.09385 -10.49793,-2.79893c-4.72039,-5.54084 5.47767,-12.07926 8.78643,-14.56805c0,0 2,-1.5 3.5,0.5c1.5,2 -0.5,3.5 -0.5,3.5c-2.23123,1.66814 -4.31999,3.53054 -6.3111,5.47902c-0.59466,0.58193 -2.42708,1.61752 -1.63853,1.88295c2.38056,0.80131 4.97924,0.67031 7.45918,1.06912c0.29278,0.04708 0.58509,0.09399 0.877,0.14064c-0.02702,-1.32111 -0.05825,-2.6384 -0.05825,-3.935c0,0 0,-2.5 2.5,-2.5c2.5,0 2.5,2.5 2.5,2.5c0,1.54767 0.04174,3.12408 0.0695,4.702c4.69628,0.67223 9.35267,1.16603 14.16656,1.16603h3.17408c0,0 2.5,0 2.5,2.5c0,2.5 -2.5,2.5 -2.5,2.5h-3.17408c-4.82173,0 -9.4936,-0.46523 -14.1942,-1.11958c-0.01293,0.30221 -0.02865,0.60336 -0.0476,0.90327c-0.35292,5.58652 -1.75997,11.14298 -2.3151,16.721l-0.40444,1.40747c0,0 -0.79057,2.37171 -3.16228,1.58114z" fill="#9966ff" stroke-width="0.5"/></g></g></svg>