<svg version="1.1" xmlns="http://www.w3.org/2000/svg" xmlns:xlink="http://www.w3.org/1999/xlink" width="65.01547" height="86.8101" viewBox="0,0,65.01547,86.8101"><g transform="translate(-206.20053,-125.5649)"><g stroke="none" stroke-miterlimit="10"><g stroke-width="1"><path d="M268.083,183.402c0,14.527 -12.525,26.307 -27.978,26.307c-15.453,0 -27.977,-11.775 -27.977,-26.307c0,-14.527 12.523,-21.275 27.977,-21.275c15.452,-0.001 27.978,6.749 27.978,21.275z" fill="#ec1c2c"/><g fill="#231f20"><path d="M271.216,183.121c0,16.156 -13.927,29.254 -31.109,29.254c-17.179,0 -31.107,-13.098 -31.107,-29.254c0,-14.238 10.821,-20.648 25.149,-21.972c0,0 4.528,-0.58 9.136,-0.189c15.684,0.73 27.931,7.017 27.931,22.161zM266.47,183.55c0,-12.602 -10.007,-18.984 -22.949,-19.92c0,0 -8.207,0.115 -8.456,0.144c-12.145,1.341 -21.314,7.71 -21.314,19.774c0,13.686 11.798,24.785 26.357,24.785c14.558,0 26.356,-11.097 26.362,-24.783z"/><path d="M249.06,170.065c-3.568,0.181 -6.986,0.271 -10.561,0.672c-2.387,0.268 -4.687,0.289 -6.455,-1.514c-0.384,-0.395 0.118,-1.076 0.598,-0.773c1.182,0.741 2.373,1.041 3.571,1.099c0.078,0.064 4.274,-0.49 6.19,-1.098c2.312,-0.63 4.626,-1.15 6.929,-0.389c1.101,0.364 0.888,1.942 -0.272,2.003z"/></g><path d="M221.555,183.261c0,3.431 1.85,6.212 -0.084,6.212c-1.934,0 -3.5,-2.781 -3.5,-6.212c0,-3.43 1.566,-6.211 3.5,-6.211c1.934,0 0.084,2.782 0.084,6.211z" fill="#ffffff"/></g><g stroke-width="1"><path d="M233.116,153.686c1.021,-0.61 2.039,-1.222 3.059,-1.833c0.734,1.128 1.472,2.229 2.064,3.482c2.162,4.564 1.686,9.385 1.624,14.212c-0.375,0.089 -0.977,0.153 -1.348,0.219c0.258,-6.148 -1.205,-11.784 -5.399,-16.08z" fill="#99661d"/><path d="M242.297,167.438c0,0 -0.23,1.876 -0.251,2.23c0,0 -3.771,1.124 -5.25,0.562l-0.046,-1.609c0.03,-3.215 -0.97,-6.668 -1.562,-7.749c-0.283,-0.516 -1.423,-3.466 -4.9,-6.557c-0.596,-0.527 -0.395,-1.515 0.242,-1.898c1.807,-1.084 3.609,-2.168 5.414,-3.252c0.58,-0.347 1.265,-0.088 1.658,0.435c5.528,7.358 4.864,17.077 4.695,17.838zM239.761,168.152c0.112,-4.442 0.49,-8.57 -1.522,-12.817c-0.592,-1.253 -1.33,-2.354 -2.064,-3.482c-1.02,0.611 -2.038,1.223 -3.059,1.833c3.962,4.058 5.58,8.969 5.53,14.683v1.152l1.109,-0.141z" fill="#231f20"/></g><path d="M229.94795,148.2592c0,2.5 -2.5,2.5 -2.5,2.5h-0.57711c-3.84705,0 -7.69519,0.02787 -11.54211,0c-1.63433,-0.01184 -3.37374,0.51065 -4.90267,-0.06688c-1.68754,-0.63744 -4.23194,-1.57723 -4.22552,-3.38113c0.00741,-2.08304 2.67994,-3.21332 4.25382,-4.57787c0.23368,-0.2026 5.71802,-3.44075 6.33928,-4.43064c0.2835,-0.45172 -0.19135,-1.05275 -0.21371,-1.58559c-0.07034,-1.67593 0.89087,-5.36315 -1.58299,-6.03911c-0.88882,-0.24286 -1.84089,-0.08407 -2.76133,-0.12611c0,0 -2.49136,-0.20761 -2.28375,-2.69898c0.20761,-2.49136 2.69898,-2.28375 2.69898,-2.28375c1.38798,0.15033 2.88458,-0.10789 4.16393,0.451c4.9209,2.14969 4.89083,6.13457 4.76517,10.69695c-0.03317,1.20444 0.37191,2.55535 -0.21371,3.60836c-0.80284,1.44358 -3.82736,3.92053 -6.14978,5.43394c0.03747,0.00018 0.07491,0.00012 0.11231,-0.00019c3.84678,-0.03183 7.69515,0 11.54211,0h0.57711c0,0 2.5,0 2.5,2.5z" fill="#9966ff" stroke-width="0.5"/></g></g></svg>